<?xml version="1.0" encoding="utf-8"?>
<!-- Generator: Adobe Illustrator 23.0.1, SVG Export Plug-In . SVG Version: 6.00 Build 0)  -->
<svg version="1.1" id="Ebene_1" xmlns="http://www.w3.org/2000/svg" xmlns:xlink="http://www.w3.org/1999/xlink" x="0px" y="0px"
	 width="463.7px" height="49.1px" viewBox="0 0 463.7 49.1" style="enable-background:new 0 0 463.7 49.1;" xml:space="preserve">
<style type="text/css">
	.st0{fill:#ED1C24;}
	.st1{fill:url(#SVGID_1_);}
	.st2{fill:#002157;}
	.st3{fill:#003D79;}
</style>
<path class="st0" d="M378.4,7.4l-17.9,25.9c-2.4,3.4-6.2,6.7-10.8,7.1v0.8h19.9c5.3,0,9.2-3.5,11.7-7.2l18.4-26.5H378.4L378.4,7.4z"
	/>
<linearGradient id="SVGID_1_" gradientUnits="userSpaceOnUse" x1="374.7" y1="42.8004" x2="374.7" y2="8.9904" gradientTransform="matrix(1 0 0 -1 0 50.1808)">
	<stop  offset="0.33" style="stop-color:#FF1E27"/>
	<stop  offset="1" style="stop-color:#E81B23"/>
</linearGradient>
<path class="st1" d="M378.4,7.4l-17.9,25.9c-2.4,3.4-6.2,6.7-10.8,7.1v0.8h19.9c5.3,0,9.2-3.5,11.7-7.2l18.4-26.5H378.4L378.4,7.4z"
	/>
<path class="st2" d="M47.8,41.2V10.2h9v30.9L47.8,41.2L47.8,41.2z M256.2,41.2l-21.7-18.3v18.3h-7.6V10.2h6.5l21.4,18.1V10.2h7.6
	v30.9L256.2,41.2L256.2,41.2z M303.5,20.2c-4.1-2-8.7-3.6-14.7-3.6c-7.3,0-12.7,3.8-12.7,9c0,5.4,5.5,9.2,12.6,9.2
	c5.9,0,10.5-1.5,15.1-4.1v7.7c-4.1,2-9.5,3.5-15.5,3.5c-12.3,0-22.1-6.3-22.1-16.1c0-9.7,9.9-15.9,22.1-15.9
	c5.7,0,10.9,1.1,15.2,2.8C303.5,12.6,303.5,20.2,303.5,20.2z M107.1,41.2V10.2h30.2v6.6h-21.1v7.7h20.6v6.6h-20.6v10L107.1,41.2
	L107.1,41.2z M308.9,41.2V10.2h31.3v6.6h-22.3v5.4h21.9v6.6h-21.9v5.7h22.2v6.6L308.9,41.2L308.9,41.2z M168.7,29.6l12.4,11.6h-9.6
	c-2.1,0-3.5-0.7-4.7-1.8l-8.5-8.2c-0.2-0.2-0.4-0.2-0.7-0.2h-5.8v10.2h-9V10.2h19.5c10.1,0,14.4,4.6,14.4,9.6
	C176.9,25.7,171.6,28.5,168.7,29.6L168.7,29.6z M161.5,24.4c3.6,0,5.3-1.8,5.3-3.9s-1.5-3.7-5.3-3.7h-9.6v7.6H161.5z M91.1,29.6
	l12.4,11.6h-9.6c-2.1,0-3.5-0.7-4.7-1.8l-8.5-8.2C80.6,31.1,80.3,31,80,31h-5.8v10.2h-9V10.2h19.5c10.1,0,14.4,4.6,14.4,9.6
	C99.3,25.7,94,28.5,91.1,29.6z M83.9,24.4c3.6,0,5.3-1.8,5.3-3.9s-1.5-3.7-5.3-3.7h-9.6v7.6H83.9z M33.6,41.2l-4-6.8H12.3l-3.6,6.8
	H0.2l17.2-30.9h7.9l19.5,30.9L33.6,41.2L33.6,41.2z M15.8,27.9h10l-5.2-9.5C20.6,18.4,15.8,27.9,15.8,27.9z M214.1,41.2l-3.9-6.8
	h-16.8l-3.5,6.8h-8.4l16.8-30.9h7.6l19,30.9H214.1z M196.7,27.9h9.8l-5.1-9.5L196.7,27.9z"/>
<g>
	<path class="st3" d="M451.4,4.3c0.2,0.1,0.5,0,0.6-0.3l0,0c0.1-0.3,0-0.5-0.3-0.6c-0.3-0.1-0.5,0-0.6,0.3
		C451,3.9,451.2,4.2,451.4,4.3C451.4,4.3,451.4,4.3,451.4,4.3L451.4,4.3z M451.5,4.2c-0.2-0.1-0.3-0.3-0.2-0.5l0,0l0,0
		c0.1-0.2,0.3-0.3,0.5-0.2l0,0l0,0c0.2,0.1,0.3,0.3,0.2,0.5l0,0C451.9,4.2,451.7,4.3,451.5,4.2L451.5,4.2z M451.7,3.9
		c0.1,0,0.1,0,0.2-0.1l0,0l0,0c0-0.1,0-0.1,0-0.2c0,0-0.1-0.1-0.1-0.1l-0.2-0.1L451.3,4l0.1,0l0.1-0.2l0.1,0l0,0.2l0.1,0L451.7,3.9z
		 M451.5,3.8l0-0.1l0.1,0c0,0,0.1,0,0.1,0.1c0,0.1-0.1,0.1-0.1,0L451.5,3.8z"/>
	<g>
		<path class="st3" d="M454,10.8L454,10.8c8.2,8.3,8.1,21.6-0.1,29.8c-7.6,7.5-19.6,8.2-27.9,1.6l0,0c8.5,7.9,21.8,7.5,29.8-1.1
			c7.9-8.5,7.5-21.8-1-29.7C454.5,11.2,454.3,11,454,10.8L454,10.8z"/>
		<path class="st3" d="M416.7,34.7c-0.7,0.4-0.8,0.9-0.5,1.8c0.3,0.8,0.8,1.1,1.4,0.9c0.4-0.2,0.5-0.5,0.3-1.5l-0.1-0.4
			c-0.2-0.6-0.2-1.2-0.1-1.7c0.1-0.4,0.4-0.8,0.8-0.9c1-0.4,1.9,0.2,2.4,1.5c0.6,1.4,0.3,2.5-0.9,3l-0.3-0.7c0.8-0.3,1-1.1,0.6-2.1
			c-0.3-0.9-0.9-1.2-1.5-1c-0.5,0.2-0.6,0.6-0.4,1.6l0.1,0.4l0.1,0.4c0.1,0.4,0.1,0.9,0.1,1.3c-0.1,0.4-0.4,0.7-0.7,0.8
			c-0.9,0.3-1.8-0.2-2.2-1.4c-0.5-1.3-0.2-2.3,0.8-2.7L416.7,34.7z"/>
		<path class="st3" d="M416.1,27.1l3.2-2.7l0,1l-2.7,2.2l0.9,1l1.9,0l0,0.8l-5.4,0.1l0-0.8l2.1,0h0.6l-0.2-0.2l-0.2-0.2l-2.4-2.6
			l0-1L416.1,27.1z"/>
		<path class="st3" d="M418.5,18.7l2.1,0.7l-0.3,0.7l-2.1-0.7l-3.8,1.1l0.3-0.9l2.3-0.6l0.3-0.1c0.1,0,0.3-0.1,0.4-0.1
			c-0.1-0.2-0.3-0.3-0.4-0.5l-1.5-2l0.3-0.8L418.5,18.7z"/>
		<path class="st3" d="M422.2,8.7l-1.1,1.4l3.4,2.8l-0.8,1l-3.4-2.8l-1.1,1.4l-0.8-0.6l3.1-3.8L422.2,8.7z"/>
		<path class="st3" d="M429.5,3.6l-2.7,1.6l0.6,1l2.5-1.5l0.5,0.8L427.8,7l0.7,1.2l2.8-1.6l0.5,0.9l-3.9,2.3L425.1,5l3.9-2.3
			L429.5,3.6z"/>
		<path class="st3" d="M440,5.7l-1.4,0.1l-0.7-1.2l-2.2,0.3l-0.3,1.3L434,6.6l1.4-5.9l1.3-0.2L440,5.7z M436.9,2.9
			c-0.2-0.4-0.4-0.7-0.6-1.1c-0.1,0.4-0.1,0.8-0.2,1.2l-0.2,1l1.6-0.3L436.9,2.9z"/>
		<path class="st3" d="M448.7,7.4L447.6,7l0.4-1.6c0-0.2,0.1-0.4,0.2-0.8c0.1-0.3,0.2-0.6,0.2-0.8c0.1-0.2,0.1-0.4,0.2-0.7l0.1-0.4
			c-0.3,0.5-0.4,0.7-0.7,1.2c-0.1,0.2-0.2,0.4-0.3,0.5l-1.5,2.1l-1-0.3l-0.3-2.6c0-0.1,0-0.3-0.1-0.6c0-0.3,0-0.6,0-0.8
			c0-0.2,0-0.4,0-0.7l-0.1,0.7c-0.2,0.7-0.2,1-0.4,1.9L443.8,6l-1.2-0.2l1.4-5.3l1.8,0.4l0.3,2.5c0.1,0.6,0.1,1.2,0,1.8
			c0.2-0.3,0.3-0.6,0.5-0.9c0.2-0.2,0.3-0.5,0.4-0.7l1.4-2.1l1.7,0.6L448.7,7.4z"/>
		<path class="st3" d="M438.4,17.9c-0.7,0.6-2,1.8-3.2,3l-1.4,1.4c-1.2-0.2-2.3-0.3-3.5-0.3c-2.7,0-5.1,0.7-6.2,1.9
			c-0.4,0.4-0.6,0.9-0.6,1.4c0,1.3,1.5,1.9,1.9,2.1c2.1,0.9,4.6,0.6,6.4-0.8c1.3-1,2.5-2,3.6-3.1c0.8,0.2,1.8,0.4,2.8,0.7l0.9,0.3
			c-1.2,1.2-2.5,2.5-3.7,3.5l-0.1,0.1c-1.6,1.4-2.8,2.5-4.5,2.8c-0.8,0.2-1.6,0.2-2.3-0.2c0,0-0.1,0.1-0.1,0.1
			c0.9,0.9,2.2,1.3,3.5,1.1c1.5-0.1,3.3-1.1,5.1-2.7l2.4-2.4l1.7-1.7c0,0,3.4,1,3.4,1c0,0,0,0,0.1,0c0,0-2.1,2.1-2.1,2.1l-1.8,1.8
			c-1.2,1.3-2.5,2.4-3.9,3.5c-1.8,1.3-3.3,2-4.7,2c-0.9,0.1-1.8-0.1-2.6-0.5c0,0-0.1,0-0.1,0c1,1.1,2.5,1.7,4,1.7
			c2.2-0.1,4.1-1.1,7.1-3.9c1.4-1.3,2.8-2.7,4-3.9l2.2-2.3c1.4,0.3,2.8,0.5,4.3,0.4c2.1,0,3.9-1.1,3.9-2.2c-0.1-0.7-0.5-1.3-1.1-1.6
			c-0.8-0.5-1.7-0.8-2.6-0.7c-1.8,0.1-3.6,0.8-5,2.1l-1.1,1c0,0-0.4-0.1-0.4-0.1l-3.1-0.9c0.9-0.9,1.7-1.6,2.4-2.2
			c1.3-1.2,2.9-2,4.7-2.2c0.8-0.1,2.2,0,2.8,0.4c0,0,0.1-0.1,0.1-0.1c-1.1-1-2.5-1.5-4-1.5c-1.1,0-2.8,0.3-5,2
			c-1.1,0.9-2.2,1.9-3.2,3c0,0-1.6-0.5-1.6-0.5l-0.4-0.1l-1.7-0.5c0,0,1-0.9,1-0.9c1.1-1.1,2.2-2.1,3-2.8c3-2.5,4.9-2.9,6.2-2.9
			c1.2-0.1,2.4,0.2,3.4,0.9c0,0,0.1-0.1,0.1-0.1c-1.3-1.4-3.1-2.1-5-2C442.7,15,440.5,16,438.4,17.9z M426.6,26.9
			c-1-0.1-1.4-0.5-1.4-1.2c0-0.1,0.1-2.5,5.5-2.8c0.8,0,1.6,0,2.4,0.1c0,0-0.6,0.5-0.6,0.5l-0.3,0.3C430.7,25,428.5,27,426.6,26.9z
			 M448.6,24.9c1.6-1.1,2.9-1.6,3.7-1.6c0.5,0,1.1,0.2,1.1,0.8s-0.6,1.1-1.7,1.5c-1.4,0.4-2.8,0.5-4.2,0.3
			C447.8,25.5,448.2,25.2,448.6,24.9L448.6,24.9z"/>
	</g>
</g>
</svg>
