<svg id="Ebene_1" data-name="Ebene 1" xmlns="http://www.w3.org/2000/svg" xmlns:xlink="http://www.w3.org/1999/xlink" viewBox="0 0 461.2612 47.3503"><defs><linearGradient id="Unbenannter_Verlauf" x1="374.7" y1="981.2192" x2="374.7" y2="1015.0192" gradientTransform="translate(0 -973.8192)" gradientUnits="userSpaceOnUse"><stop offset="0.33" stop-color="#ff1e27"/><stop offset="1" stop-color="#e81b23"/></linearGradient></defs><title>partner2</title><path d="M378.4,7.4,360.5,33.3c-2.4,3.4-6.2,6.7-10.8,7.1v.8h19.9c5.3,0,9.2-3.5,11.7-7.2L399.7,7.5H378.4Z" transform="translate(-0.2 -0.5)" fill="#ed1c24"/><path d="M378.4,7.4,360.5,33.3c-2.4,3.4-6.2,6.7-10.8,7.1v.8h19.9c5.3,0,9.2-3.5,11.7-7.2L399.7,7.5H378.4Z" transform="translate(-0.2 -0.5)" fill="url(#Unbenannter_Verlauf)"/><path d="M47.8,41.2v-31h9V41.1l-9,.1Zm208.4,0L234.5,22.9V41.2h-7.6v-31h6.5l21.4,18.1V10.2h7.6V41.1l-6.2.1Zm47.3-21a32.1911,32.1911,0,0,0-14.7-3.6c-7.3,0-12.7,3.8-12.7,9,0,5.4,5.5,9.2,12.6,9.2a29.15,29.15,0,0,0,15.1-4.1v7.7a35.8129,35.8129,0,0,1-15.5,3.5c-12.3,0-22.1-6.3-22.1-16.1,0-9.7,9.9-15.9,22.1-15.9a41.6055,41.6055,0,0,1,15.2,2.8Zm-196.4,21v-31h30.2v6.6H116.2v7.7h20.6v6.6H116.2v10l-9.1.1Zm201.8,0v-31h31.3v6.6H317.9v5.4h21.9v6.6H317.9v5.7h22.2v6.6l-31.2.1ZM168.7,29.6l12.4,11.6h-9.6a6.4857,6.4857,0,0,1-4.7-1.8l-8.5-8.2a.8437.8437,0,0,0-.7-.2h-5.8V41.2h-9v-31h19.5c10.1,0,14.4,4.6,14.4,9.6.2,5.9-5.1,8.7-8,9.8Zm-7.2-5.2c3.6,0,5.3-1.8,5.3-3.9s-1.5-3.7-5.3-3.7h-9.6v7.6ZM91.1,29.6l12.4,11.6H93.9a6.4857,6.4857,0,0,1-4.7-1.8l-8.5-8.2A1.1655,1.1655,0,0,0,80,31H74.2V41.2h-9v-31H84.7c10.1,0,14.4,4.6,14.4,9.6C99.3,25.7,94,28.5,91.1,29.6Zm-7.2-5.2c3.6,0,5.3-1.8,5.3-3.9s-1.5-3.7-5.3-3.7H74.3v7.6ZM33.6,41.2l-4-6.8H12.3L8.7,41.2H.2L17.4,10.3h7.9L44.8,41.2ZM15.8,27.9h10l-5.2-9.5ZM214.1,41.2l-3.9-6.8H193.4l-3.5,6.8h-8.4l16.8-30.9h7.6l19,30.9ZM196.7,27.9h9.8l-5.1-9.5Z" transform="translate(-0.2 -0.5)" fill="#fff"/><path d="M451.4,4.3A.4457.4457,0,0,0,452,4h0a.4743.4743,0,1,0-.9-.3c-.1.2.1.5.3.6Zm.1-.1a.3653.3653,0,0,1-.2-.5h0a.3653.3653,0,0,1,.5-.2h0a.3653.3653,0,0,1,.2.5h0a.3653.3653,0,0,1-.5.2Zm.2-.3c.1,0,.1,0,.2-.1h0V3.6l-.1-.1-.2-.1-.3.6h.1l.1-.2h.1V4h.1Zm-.2-.1V3.7h.1a.0979.0979,0,0,1,.1.1c0,.1-.1.1-.1,0Z" transform="translate(-0.2 -0.5)" fill="#fff"/><path d="M454,10.8h0a21.0742,21.0742,0,0,1-28,31.4h0a21.0838,21.0838,0,0,0,28.8-30.8c-.3-.2-.5-.4-.8-.6Z" transform="translate(-0.2 -0.5)" fill="#fff"/><path d="M416.7,34.7c-.7.4-.8.9-.5,1.8.3.8.8,1.1,1.4.9.4-.2.5-.5.3-1.5l-.1-.4a3.3389,3.3389,0,0,1-.1-1.7,1.22,1.22,0,0,1,.8-.9c1-.4,1.9.2,2.4,1.5.6,1.4.3,2.5-.9,3l-.3-.7c.8-.3,1-1.1.6-2.1-.3-.9-.9-1.2-1.5-1-.5.2-.6.6-.4,1.6l.1.4.1.4a5.702,5.702,0,0,1,.1,1.3,1.1432,1.1432,0,0,1-.7.8c-.9.3-1.8-.2-2.2-1.4-.5-1.3-.2-2.3.8-2.7Z" transform="translate(-0.2 -0.5)" fill="#fff"/><path d="M416.1,27.1l3.2-2.7v1l-2.7,2.2.9,1h1.9v.8l-5.4.1v-.8h2.7l-.2-.2-.2-.2-2.4-2.6v-1Z" transform="translate(-0.2 -0.5)" fill="#fff"/><path d="M418.5,18.7l2.1.7-.3.7-2.1-.7-3.8,1.1.3-.9L417,19l.3-.1c.1,0,.3-.1.4-.1-.1-.2-.3-.3-.4-.5l-1.5-2,.3-.8Z" transform="translate(-0.2 -0.5)" fill="#fff"/><path d="M422.2,8.7l-1.1,1.4,3.4,2.8-.8,1-3.4-2.8-1.1,1.4-.8-.6,3.1-3.8Z" transform="translate(-0.2 -0.5)" fill="#fff"/><path d="M429.5,3.6l-2.7,1.6.6,1,2.5-1.5.5.8L427.8,7l.7,1.2,2.8-1.6.5.9-3.9,2.3L425.1,5,429,2.7Z" transform="translate(-0.2 -0.5)" fill="#fff"/><path d="M440,5.7l-1.4.1-.7-1.2-2.2.3-.3,1.3-1.4.4L435.4.7l1.3-.2Zm-3.1-2.8c-.2-.4-.4-.7-.6-1.1-.1.4-.1.8-.2,1.2l-.2,1,1.6-.3Z" transform="translate(-0.2 -0.5)" fill="#fff"/><path d="M448.7,7.4,447.6,7l.4-1.6a4.4985,4.4985,0,0,1,.2-.8,3.0913,3.0913,0,0,0,.2-.8,6.3729,6.3729,0,0,0,.2-.7l.1-.4c-.3.5-.4.7-.7,1.2a2.1859,2.1859,0,0,1-.3.5l-1.5,2.1-1-.3-.3-2.6a1.7578,1.7578,0,0,0-.1-.6V1.5l-.1.7c-.2.7-.2,1-.4,1.9L443.8,6l-1.2-.2L444,.5l1.8.4.3,2.5a5.4321,5.4321,0,0,1,0,1.8c.2-.3.3-.6.5-.9a2.504,2.504,0,0,0,.4-.7l1.4-2.1,1.7.6Z" transform="translate(-0.2 -0.5)" fill="#fff"/><path d="M438.4,17.9c-.7.6-2,1.8-3.2,3l-1.4,1.4a20.6792,20.6792,0,0,0-3.5-.3c-2.7,0-5.1.7-6.2,1.9a1.9743,1.9743,0,0,0-.6,1.4c0,1.3,1.5,1.9,1.9,2.1a6.4133,6.4133,0,0,0,6.4-.8,36.5147,36.5147,0,0,0,3.6-3.1c.8.2,1.8.4,2.8.7l.9.3c-1.2,1.2-2.5,2.5-3.7,3.5l-.1.1c-1.6,1.4-2.8,2.5-4.5,2.8a3.0429,3.0429,0,0,1-2.3-.2l-.1.1a4.0558,4.0558,0,0,0,3.5,1.1,9.4459,9.4459,0,0,0,5.1-2.7l2.4-2.4,1.7-1.7,3.4,1h.1l-2.1,2.1L440.7,30a32.47,32.47,0,0,1-3.9,3.5c-1.8,1.3-3.3,2-4.7,2a4.6786,4.6786,0,0,1-2.6-.5h-.1a5.4391,5.4391,0,0,0,4,1.7c2.2-.1,4.1-1.1,7.1-3.9,1.4-1.3,2.8-2.7,4-3.9l2.2-2.3a15.3276,15.3276,0,0,0,4.3.4c2.1,0,3.9-1.1,3.9-2.2a2.0869,2.0869,0,0,0-1.1-1.6,4.1045,4.1045,0,0,0-2.6-.7,8.0078,8.0078,0,0,0-5,2.1l-1.1,1-.4-.1-3.1-.9c.9-.9,1.7-1.6,2.4-2.2a8.2411,8.2411,0,0,1,4.7-2.2,5.1888,5.1888,0,0,1,2.8.4l.1-.1a5.8514,5.8514,0,0,0-4-1.5,8.0684,8.0684,0,0,0-5,2,29.9633,29.9633,0,0,0-3.2,3l-1.6-.5-.4-.1-1.7-.5,1-.9c1.1-1.1,2.2-2.1,3-2.8,3-2.5,4.9-2.9,6.2-2.9a5.1553,5.1553,0,0,1,3.4.9l.1-.1a6.2864,6.2864,0,0,0-5-2C442.7,15,440.5,16,438.4,17.9Zm-11.8,9c-1-.1-1.4-.5-1.4-1.2,0-.1.1-2.5,5.5-2.8a19.2687,19.2687,0,0,1,2.4.1l-.6.5-.3.3C430.7,25,428.5,27,426.6,26.9Zm22-2a7.5973,7.5973,0,0,1,3.7-1.6c.5,0,1.1.2,1.1.8s-.6,1.1-1.7,1.5a9.9868,9.9868,0,0,1-4.2.3,5.2413,5.2413,0,0,1,1.1-1Z" transform="translate(-0.2 -0.5)" fill="#fff"/></svg>