<svg id="layer" xmlns="http://www.w3.org/2000/svg" viewBox="0 0 599.9 125.2"><title>partner</title><circle cx="73.125" cy="62.725" r="62.475" fill="#fff"/><path d="M194.3,59.2V77.3c0,6.7-4.1,9.6-9.1,9.6-6.8,0-8.6-3.8-9.1-9.3h5.8c0,2,.4,5,3.3,5,3.1,0,3.1-3.5,3.3-5.5v-18l5.8.1Z" transform="translate(-10 -5.6)" fill="#000"/><path d="M198.4,72.8a5.0726,5.0726,0,0,1,2.6-4.7,11.031,11.031,0,0,1,5.6-1.2c3.8,0,8,1.4,8,7.1V84.3a10.5276,10.5276,0,0,0,.3,2.1h-5.1a22.8562,22.8562,0,0,1-.2-2.5h-.1a6.1248,6.1248,0,0,1-5.8,3.1c-3.5,0-6.2-2-6.2-5.7a6.641,6.641,0,0,1,4-6,17.2513,17.2513,0,0,1,7.4-1V72.5a2.3846,2.3846,0,0,0-2.6-2.3,2.53,2.53,0,0,0-2.5,2.7h-5.4Zm4.5,7.6a2.6278,2.6278,0,0,0,2.7,2.7c3.1,0,3.2-3.4,3.2-5.7-1.9,0-5.9,0-5.9,3" transform="translate(-10 -5.6)" fill="#000"/><path d="M224.4,69.7h0a6.5419,6.5419,0,0,1,5.1-2.7c5.9,0,8.8,4.9,8.8,10,0,4.8-2.6,10-8.1,10a6.1539,6.1539,0,0,1-5.7-3.2h-.1v9.9h-5.6V71.4c0-1.2-.1-2.5-.2-3.8h5.7Zm4,13.5c3.6,0,4.1-3.4,4.1-6.2,0-2.9-.5-6.2-4.1-6.2-3,0-4.1,3.6-4.1,6.2s1.1,6.2,4.1,6.2" transform="translate(-10 -5.6)" fill="#000"/><path d="M241.5,72.8a5.0726,5.0726,0,0,1,2.6-4.7,11.031,11.031,0,0,1,5.6-1.2c3.8,0,8,1.4,8,7.1V84.3a10.5276,10.5276,0,0,0,.3,2.1h-5.1a22.8562,22.8562,0,0,1-.2-2.5h-.1a6.1248,6.1248,0,0,1-5.8,3.1c-3.5,0-6.2-2-6.2-5.7a6.641,6.641,0,0,1,4-6,17.2513,17.2513,0,0,1,7.4-1V72.5a2.3846,2.3846,0,0,0-2.6-2.3,2.53,2.53,0,0,0-2.5,2.7h-5.4v-.1Zm4.5,7.6a2.6278,2.6278,0,0,0,2.7,2.7c3.1,0,3.2-3.4,3.2-5.7-1.9,0-5.9,0-5.9,3" transform="translate(-10 -5.6)" fill="#000"/><path d="M267.3,69.7l.1.1a6.5319,6.5319,0,0,1,5.8-2.9c1.9,0,5.5,1.4,6.2,4.1a13.6985,13.6985,0,0,1,.4,3V86.3h-5.6V75c0-2-.6-4.3-3.4-4.3-1.8,0-3.3,1.6-3.4,4.3V86.4h-5.6V67.5h5.6v2.2Z" transform="translate(-10 -5.6)" fill="#000"/><rect x="274.3" y="75.7" width="4.8" height="5" fill="#000"/><polygon points="296.1 80.8 296.1 53.6 312.3 53.6 312.3 55.9 298.6 55.9 298.6 65.6 311.7 65.6 311.7 67.9 298.6 67.9 298.6 78.5 312.8 78.5 312.8 80.8 296.1 80.8" fill="#000"/><path d="M330.5,86.4h-2.3V71.8c0-1.5-.1-3-.2-4.2h2.3l.1,2.8.1.1a6.4486,6.4486,0,0,1,5.9-3.4c6.2,0,6.7,5.5,6.7,7.6V86.5h-2.3V74.3c0-3.3-1.9-5.2-5-5.2-3.7,0-5.4,3.1-5.4,6.5l.1,10.8Z" transform="translate(-10 -5.6)" fill="#000"/><path d="M361.4,83.6l-.1-.1a7.7192,7.7192,0,0,1-6.5,3.5c-5.6,0-7.7-5.3-7.7-10.1,0-4.9,2.1-9.9,7.7-9.9a7.7545,7.7545,0,0,1,6.5,3.4l.1-.1v-11h2.2V82.2c0,1.5.1,3,.2,4.2h-2.3ZM355.2,69c-4.3,0-5.7,4-5.7,7.6,0,3.5,1,8.3,5.3,8.3,4.9,0,6.4-4.1,6.4-8.4.1-3.9-1.6-7.5-6-7.5" transform="translate(-10 -5.6)" fill="#000"/><rect x="359.3" y="53.6" width="2.3" height="27.1" fill="#000"/><path d="M379,77.5c.1,4,1.9,7.4,6.5,7.4a5.6634,5.6634,0,0,0,5.5-4.5h2.4c-1.2,4.5-4,6.6-8.5,6.6-5.6,0-8.3-4.8-8.3-10,0-5.1,2.8-10,8.4-10,6.3,0,8.6,4.6,8.6,10.5Zm12.1-2.1c-.3-3.6-2.2-6.4-6.1-6.4-3.7,0-5.6,3.1-5.9,6.4Z" transform="translate(-10 -5.6)" fill="#000"/><path d="M404.1,66.9c3.6,0,6.6,1.2,6.9,5.2h-2.4c-.2-2.4-2.3-3.2-4.7-3.2-2.1,0-4.2.8-4.2,3.1,0,2.8,3.6,2.5,8.7,4.3a4.5877,4.5877,0,0,1,3.2,4.4c0,4.2-3.9,6.2-7.9,6.2-3.3,0-7-1.5-7.1-5.7H399c.2,2.8,2.7,3.6,5.2,3.6,2.4,0,4.9-1.1,4.9-3.8s-3-3.2-6-3.8c-3-.7-6-1.6-6-5.1,0-3.8,3.7-5.2,7-5.2" transform="translate(-10 -5.6)" fill="#000"/><path d="M422.1,66.9c3.6,0,6.6,1.2,6.9,5.2h-2.5c-.2-2.4-2.3-3.2-4.7-3.2-2.1,0-4.2.8-4.2,3.1,0,2.8,3.6,2.5,8.7,4.3a4.5877,4.5877,0,0,1,3.2,4.4c0,4.2-3.9,6.2-7.9,6.2-3.3,0-7-1.5-7.1-5.7h2.4c.2,2.8,2.7,3.6,5.2,3.6,2.4,0,4.9-1.1,4.9-3.8s-3-3.2-6-3.8c-3-.7-6-1.6-6-5.1.2-3.8,3.8-5.2,7.1-5.2" transform="translate(-10 -5.6)" fill="#000"/><path d="M452.8,59.2c8.9,0,14,4.6,14,13.6s-5.1,13.6-14,13.6h-7.3V59.3h7.3Zm.6,24.9c7.6,0,10.8-4.5,10.8-11.3,0-8-4.7-11.5-12.4-11.3H448V84.1Z" transform="translate(-10 -5.6)" fill="#000"/><path d="M474.7,62H472V59.2h2.6V62Zm-.2,24.3h-2.3V67.4h2.3Z" transform="translate(-10 -5.6)" fill="#000"/><path d="M486.8,66.9c3.6,0,6.6,1.2,6.9,5.2h-2.4c-.2-2.4-2.3-3.2-4.7-3.2-2.1,0-4.2.8-4.2,3.1,0,2.8,3.6,2.5,8.8,4.3a4.7189,4.7189,0,0,1,3.2,4.4c0,4.2-4,6.2-7.9,6.2-3.3,0-7-1.5-7.1-5.7h2.5c.2,2.8,2.7,3.6,5.2,3.6,2.4,0,4.9-1.1,4.9-3.8s-3-3.2-6-3.8c-3-.7-6-1.6-6-5.1-.1-3.8,3.5-5.2,6.8-5.2" transform="translate(-10 -5.6)" fill="#000"/><path d="M511.2,73.3c-.2-2.9-2-4.3-5.1-4.3-3.5,0-5.6,3.6-5.6,7.9s2.1,8,5.6,8c2.9,0,5-1.8,5.1-4.4h2.4c-.6,4.3-3.1,6.5-7.4,6.5-5.6,0-8.3-4.8-8.3-10,0-5.1,2.8-10,8.4-10,3.9,0,7,2.3,7.2,6.3Z" transform="translate(-10 -5.6)" fill="#000"/><path d="M535.1,76.9c0,5-2.8,10-8.8,10s-8.8-5-8.8-10,2.8-10,8.8-10,8.8,5.1,8.8,10M526.3,69c-4.6,0-6.3,4.4-6.3,7.9s1.8,7.9,6.3,7.9,6.3-4.4,6.3-7.9-1.8-7.9-6.3-7.9" transform="translate(-10 -5.6)" fill="#000"/><polygon points="529 61.9 535.5 77.6 541.8 61.9 544.3 61.9 536.8 80.8 534.2 80.8 526.5 61.9 529 61.9" fill="#000"/><path d="M558.3,77.5c.1,4,1.9,7.4,6.5,7.4a5.6634,5.6634,0,0,0,5.5-4.5h2.4c-1.2,4.5-4,6.6-8.5,6.6-5.6,0-8.3-4.8-8.3-10,0-5.1,2.8-10,8.4-10,6.3,0,8.6,4.6,8.6,10.5Zm12.2-2.1c-.3-3.6-2.2-6.4-6.1-6.4-3.7,0-5.6,3.1-5.9,6.4Z" transform="translate(-10 -5.6)" fill="#000"/><path d="M580.2,86.4h-2.3V71.8c0-1.5-.1-3-.2-4.2H580l.1,2.8h.1a4.7759,4.7759,0,0,1,4.2-3.3h2.3v2.2c-.4,0-.9-.2-1.4-.2-3.4,0-5.1,2.4-5.2,6V86.4Z" transform="translate(-10 -5.6)" fill="#000"/><polygon points="582 61.9 588.3 77.7 594.6 61.9 597.1 61.9 586.7 88 584.2 88 587.1 80.8 579.2 61.9 582 61.9" fill="#000"/><rect x="596.9" y="77.5" width="3" height="3.2" fill="#000"/><path d="M130.2,79.8c.4-4.7,4.3-10.1,10.9-13.1a23.2049,23.2049,0,0,1,4.5-1.3A62.5809,62.5809,0,0,0,20.5,68.2c0,1.1,0,2.1.1,3.2.7-.7,1.2-1.2,1.3-1.1a12.17,12.17,0,0,1,1.1,6,12.904,12.904,0,0,1,4.4-4.2,18.0975,18.0975,0,0,1,0,9.5,14.4541,14.4541,0,0,1-3.8,6.1,62.6257,62.6257,0,0,0,59.5,43.1A61.545,61.545,0,0,0,118,120.1a1.7937,1.7937,0,0,1-.5-.7,14.45,14.45,0,0,1-2.2-12.7c3.5-.4,8.2,1.6,11.4,6.1.1.1.1.1.1.2a62.2144,62.2144,0,0,0,17.4-31.5,18.9918,18.9918,0,0,1-14-1.7M113.8,58a17.1892,17.1892,0,0,1,4.9-7.2,10.5868,10.5868,0,0,1,1.2,5.5,11.4809,11.4809,0,0,1,4-4,16.4741,16.4741,0,0,1,.2,8.7,13.5357,13.5357,0,0,1-8.2,9c-2.3-2.3-3.5-7-2.1-12M83.6,70.4c6.1-2,13.5-.2,13.5,0a17.7,17.7,0,0,1-6,6.3,18.1139,18.1139,0,0,1,8.5,1.6c.1.1-4.8,5.9-10.9,7.9A21.3324,21.3324,0,0,1,70,83.6c1.1-5.2,6-10.7,13.6-13.2M33.3,78.2a18.1139,18.1139,0,0,1,8.5-1.6,17.7,17.7,0,0,1-6-6.3c0-.1,7.4-2,13.5,0,7.7,2.5,12.2,8.6,13.5,13.1-3.8,3.5-11,5.1-18.7,2.6-6-1.9-10.9-7.7-10.8-7.8m27.7,28c-3.8,5.2-10.9,8.1-10.9,8a17.6505,17.6505,0,0,1,1.1-8.6,16.2112,16.2112,0,0,1-7.8,3.7c-.1,0,.4-7.6,4.2-12.8a21.1644,21.1644,0,0,1,16.7-8.8c2.1,4.7,1.4,12-3.3,18.5M58.2,63.9c0-6.4,4-12.9,4.1-12.9a16.71,16.71,0,0,1,4.1,7.6A16.71,16.71,0,0,1,70.5,51a26.15,26.15,0,0,1,4.1,12.9,21.0732,21.0732,0,0,1-8.3,16.9C62,78.3,58.2,72,58.2,63.9m31.3,45.4a17.4707,17.4707,0,0,1-7.8-3.7,16.3117,16.3117,0,0,1,1.1,8.6c0,.1-7.1-2.8-10.9-8a21.4741,21.4741,0,0,1-3.3-18.6c5.1-.6,11.9,2.3,16.7,8.8,3.8,5.3,4.4,12.9,4.2,12.9m1.5-9.1a11.3629,11.3629,0,0,1,5.8-1.1,12.1616,12.1616,0,0,1-4.1-4.3,18.56,18.56,0,0,1,9.3,0,14.5311,14.5311,0,0,1,9.3,9c-2.6,2.4-7.5,3.5-12.8,1.8a16.7254,16.7254,0,0,1-7.5-5.4m19,19.2a17.3074,17.3074,0,0,1-7.5,5.5,11.5844,11.5844,0,0,1,.8-5.9,10.349,10.349,0,0,1-5.4,2.5,17.8757,17.8757,0,0,1,2.9-8.8,14.7379,14.7379,0,0,1,11.4-6.1c1.5,3.3,1,8.4-2.2,12.8m3.7-17.3c-3.1-1.8-5.7-6.1-5.7-11.6a18.6327,18.6327,0,0,1,2.8-8.8,10.7057,10.7057,0,0,1,2.8,5.2,12.1035,12.1035,0,0,1,2.8-5.2,17.4922,17.4922,0,0,1,2.8,8.8,14.0807,14.0807,0,0,1-5.5,11.6m15.3,3.5a14.6691,14.6691,0,0,1-12.8-1.8c.7-3.5,4-7.3,9.3-9a17.3678,17.3678,0,0,1,9.3,0,10.6187,10.6187,0,0,1-4.1,4.3,11.3629,11.3629,0,0,1,5.8,1.1,17.44,17.44,0,0,1-7.5,5.4m-4,19.3a11.5844,11.5844,0,0,0-.8-5.9,10.349,10.349,0,0,0,5.4,2.5,18.5243,18.5243,0,0,0-2.7-8.6,68.9291,68.9291,0,0,1-8.8,7.2,16.4183,16.4183,0,0,0,6.9,4.8M16.3,78c-1.7,5.4-.6,10.4,1.9,13.1a14.1875,14.1875,0,0,0,5.4-3.4,62.6938,62.6938,0,0,1-3-16.2A17.4864,17.4864,0,0,0,16.3,78M161.9,37a16.1008,16.1008,0,0,0,5.9-5.2,23.4447,23.4447,0,0,0-12.2-1.1c-7.1,1.6-11.9,6.2-13.3,10.7a19.4444,19.4444,0,0,0,16.6,3.9,23.252,23.252,0,0,0,10.5-6.2,15.9869,15.9869,0,0,0-7.5-2.1M23.8,109.7a12.0525,12.0525,0,0,0,3.4-5,18.5388,18.5388,0,0,0-9.3,1.5c-5,2.6-7.8,7-7.9,10.6a14.9036,14.9036,0,0,0,13.2-.3,17.4325,17.4325,0,0,0,6.7-6.7,13.576,13.576,0,0,0-6.1-.1M148.5,71.6a15.8807,15.8807,0,0,0,4.8-6.2,21.9251,21.9251,0,0,0-7.6.1c0,.9.1,1.8.1,2.8a63.55,63.55,0,0,1-1.4,13.2,18.155,18.155,0,0,0,3-1.1,23.6569,23.6569,0,0,0,9.1-8.2c-.1.2-3.6-1.4-8-.6" transform="translate(-10 -5.6)" fill="#ed1b23"/></svg>
